<?xml version="1.0" standalone="no"?>
<!DOCTYPE svg PUBLIC "-//W3C//DTD SVG 20010904//EN"
 "http://www.w3.org/TR/2001/REC-SVG-20010904/DTD/svg10.dtd">
<svg version="1.0" xmlns="http://www.w3.org/2000/svg"
 width="290.000000pt" height="290.000000pt" viewBox="0 0 290.000000 290.000000"
 preserveAspectRatio="xMidYMid meet">
<metadata>
Created by potrace 1.14, written by Peter Selinger 2001-2017
</metadata>
<g transform="translate(0.000000,290.000000) scale(0.100000,-0.100000)"
fill="#000000" stroke="none">
<path d="M988 2375 c-2 -2 -30 -6 -63 -9 -63 -7 -100 -13 -100 -16 0 -1 -7 -3
-15 -5 -8 -2 -24 -6 -35 -9 -74 -18 -235 -92 -235 -108 0 -6 -3 -9 -6 -5 -4 3
-34 -15 -68 -41 -149 -114 -247 -254 -322 -457 -11 -31 -20 -71 -31 -140 -9
-61 -4 -300 7 -300 2 0 5 -14 13 -57 3 -14 10 -35 15 -45 6 -10 10 -21 11 -25
1 -5 2 -10 2 -13 1 -3 2 -8 3 -12 8 -39 105 -208 149 -260 33 -39 112 -116
141 -138 15 -11 33 -26 41 -33 24 -22 208 -112 216 -106 5 2 15 -8 23 -23 13
-27 18 -28 93 -30 205 -5 251 -5 288 1 22 4 45 7 50 7 6 0 54 -2 108 -4 72 -2
97 0 97 9 0 7 -4 16 -10 19 -19 12 -10 21 41 43 51 23 69 22 69 -3 0 -10 58
-41 88 -46 4 -1 18 -6 32 -11 49 -19 172 -27 241 -17 142 22 230 113 225 231
-4 92 -61 147 -196 188 -25 8 -46 15 -48 16 -2 1 7 22 19 46 13 23 24 45 25
48 21 69 31 74 87 52 16 -7 30 -12 31 -12 2 0 13 22 25 49 21 51 27 83 14 79
-16 -4 -94 43 -88 53 4 5 8 41 10 80 2 38 7 74 10 79 3 6 3 15 -1 21 -4 7 -7
38 -8 70 -1 33 -3 59 -6 59 -3 0 -6 12 -7 28 -1 35 -48 173 -80 236 -41 80
-79 137 -135 198 -16 17 -28 34 -28 39 0 5 -4 9 -10 9 -5 0 -25 15 -44 33 -58
55 -99 83 -168 115 -21 9 -38 20 -38 24 0 5 -8 8 -18 8 -10 0 -22 4 -27 8 -9
8 -117 44 -130 43 -2 0 -19 5 -37 10 -48 14 -211 31 -220 24z m172 -168 c44
-8 149 -41 198 -64 108 -50 241 -166 309 -270 21 -32 42 -61 46 -64 5 -3 8 -9
8 -13 -3 -18 1 -23 29 -39 52 -31 61 -74 24 -112 -21 -20 -67 -19 -86 3 -9 9
-18 33 -21 52 -13 101 -152 271 -279 342 -17 10 -35 15 -39 12 -4 -2 -7 -44
-7 -94 l0 -89 -56 -55 c-31 -30 -56 -59 -56 -65 0 -6 8 -19 18 -29 15 -15 36
-18 110 -20 51 -1 97 -4 102 -7 6 -4 10 -3 10 2 0 4 11 8 25 8 27 0 27 0 27
-80 1 -78 3 -80 103 -78 63 1 90 6 98 17 7 8 23 16 37 18 22 3 25 -1 31 -39 5
-44 2 -182 -5 -218 -3 -11 -5 -23 -5 -27 -1 -5 -16 -8 -35 -8 -34 0 -34 0 -29
38 10 76 10 141 -1 145 -6 2 -51 3 -101 3 l-90 -1 0 -37 c-1 -47 -6 -52 -63
-54 -26 -1 -50 -2 -53 -3 -4 0 -7 -27 -7 -58 -1 -95 -1 -98 -22 -121 -25 -26
-17 -47 30 -83 53 -40 60 -49 61 -80 2 -36 2 -37 19 -71 7 -16 16 -28 20 -28
3 0 16 -9 29 -21 l22 -21 -25 -23 c-63 -59 -176 -125 -246 -145 -26 -7 -32 -5
-51 21 -19 28 -19 29 -2 35 41 14 203 98 203 106 0 4 7 8 16 8 8 0 12 5 9 10
-3 6 -1 10 5 10 6 0 13 7 16 15 6 13 -62 85 -101 108 -8 4 -19 24 -25 45 -7
20 -24 54 -38 75 -25 37 -25 39 -9 67 17 29 23 125 9 146 -4 6 -26 10 -49 9
-24 -1 -47 1 -52 5 -6 3 -11 59 -11 125 -2 124 -2 125 -57 194 -5 7 -126 11
-154 5 -24 -5 -26 -9 -24 -52 3 -58 -5 -69 -47 -65 -71 6 -74 2 -76 -88 -1
-45 -4 -85 -8 -88 -3 -3 -40 -6 -82 -7 -42 -1 -80 -2 -84 -3 -5 -1 -8 -24 -8
-51 0 -43 4 -55 33 -83 27 -27 32 -39 32 -79 0 -25 -3 -50 -8 -54 -4 -4 -20 6
-35 24 -15 17 -32 33 -38 34 -11 3 -89 -58 -151 -119 -33 -33 -33 -33 -16 -60
24 -38 125 -133 141 -133 6 0 12 -4 12 -10 0 -5 6 -10 14 -10 8 0 16 -3 18 -7
2 -5 16 -15 33 -25 22 -12 29 -24 30 -48 0 -17 -3 -34 -7 -36 -16 -10 -172 85
-209 127 -11 12 -19 18 -19 13 0 -5 -7 3 -17 16 -9 14 -24 34 -34 45 -40 44
-55 63 -67 85 -32 54 -49 87 -62 120 -7 19 -21 44 -31 55 -9 11 -19 34 -22 52
-4 25 0 35 17 47 59 38 111 12 106 -52 -5 -65 -3 -94 7 -101 5 -3 12 -14 16
-24 6 -15 9 -16 21 -5 8 7 28 24 46 38 17 14 51 43 74 65 l43 40 -1 103 c-1
56 1 102 4 103 3 1 42 2 88 4 46 2 85 5 87 7 9 9 12 54 5 78 -6 23 -11 25 -61
25 l-54 1 -5 59 -5 60 -75 3 c-41 1 -82 3 -90 3 -8 1 -34 0 -57 -2 -35 -2 -44
-7 -54 -31 -6 -15 -11 -31 -11 -35 0 -4 -4 -18 -9 -29 -12 -34 -22 -103 -23
-167 -1 -55 -2 -58 -31 -66 -22 -5 -31 -4 -35 6 -13 33 2 219 20 252 4 9 8 20
8 24 0 25 75 181 98 205 8 7 14 17 14 21 0 14 135 148 180 178 106 72 220 116
335 131 65 8 179 8 235 -1z m570 -1057 c0 -26 -56 -119 -72 -120 -23 0 -32 36
-18 70 15 35 90 77 90 50z m-611 -21 c45 -14 71 -37 71 -61 0 -15 -8 -18 -45
-18 -29 0 -45 -5 -46 -12 -1 -7 -2 -20 -3 -28 -1 -11 -18 -16 -66 -20 -36 -3
-80 -3 -97 -1 -29 3 -33 7 -33 32 0 15 5 31 12 35 14 9 68 11 68 3 0 -3 11 -4
25 -2 21 5 24 10 21 37 -7 55 10 61 93 35z m672 -300 c63 -20 110 -56 105 -81
-12 -55 -53 -79 -139 -80 -60 -2 -171 23 -181 41 -3 4 24 33 60 64 36 32 62
57 57 57 -9 0 18 20 28 20 3 0 35 -9 70 -21z m-721 -89 c0 -5 7 -16 16 -25 9
-9 14 -18 11 -21 -9 -9 -87 -11 -141 -5 -44 5 -50 9 -53 33 -3 24 0 27 29 30
51 5 138 -3 138 -12z"/>
<path d="M954 2141 c-2 -3 -17 -5 -32 -6 -67 -4 -70 -8 -70 -103 0 -122 -1
-119 63 -118 60 1 57 5 59 -74 l1 -45 86 -3 86 -3 62 60 61 61 0 91 c0 64 -4
95 -14 104 -7 8 -16 12 -18 9 -3 -2 -18 0 -33 6 -48 18 -238 34 -251 21z"/>
<path d="M752 2084 c-7 -8 -17 -12 -23 -9 -5 4 -9 1 -9 -4 0 -6 -7 -11 -15
-11 -8 0 -24 -9 -35 -20 -11 -11 -23 -20 -27 -19 -9 0 -72 -52 -119 -98 -19
-18 -30 -33 -26 -33 3 0 -4 -7 -16 -16 -12 -8 -22 -20 -22 -25 0 -6 -7 -17
-15 -26 -8 -8 -13 -18 -10 -23 3 -4 55 -8 117 -9 62 -1 109 1 106 5 -4 3 -3
16 1 28 5 11 5 30 1 41 -13 35 7 51 61 49 27 -2 51 2 55 7 10 18 10 150 0 164
-9 12 -13 11 -24 -1z"/>
<path d="M763 1842 c-27 -4 -25 3 -28 -90 -1 -42 3 -75 9 -79 12 -8 145 -7
153 1 9 9 10 136 2 136 -5 0 -6 7 -3 15 5 11 -1 15 -22 16 -16 0 -42 1 -59 2
-16 1 -40 1 -52 -1z"/>
<path d="M1283 1617 c-10 -17 -6 -136 5 -149 11 -14 144 -19 157 -6 8 8 10
143 2 155 -8 13 -156 12 -164 0z"/>
<path d="M2184 1272 c-10 -7 -12 -424 -1 -487 12 -72 89 -195 122 -195 7 0 15
-5 17 -11 2 -5 10 -11 18 -12 8 -2 20 -5 25 -9 14 -9 93 -21 130 -21 173 3
283 72 324 207 15 50 18 93 17 295 l-1 236 -81 1 -81 1 -1 -231 c-1 -254 -1
-246 -26 -298 -22 -46 -74 -72 -141 -71 -65 1 -74 4 -106 31 -50 43 -54 68
-54 322 0 129 -4 238 -8 241 -12 9 -140 10 -153 1z"/>
</g>
</svg>
