<svg width="20" height="20" viewBox="0 0 20 20" fill="none" xmlns="http://www.w3.org/2000/svg">
<path d="M12.75 13.9167L13.9167 12.75L10.8333 9.66667V5.83333H9.16666V10.3333L12.75 13.9167ZM10 18.3333C8.84722 18.3333 7.76389 18.1144 6.75 17.6767C5.73611 17.2394 4.85416 16.6458 4.10416 15.8958C3.35416 15.1458 2.76055 14.2639 2.32333 13.25C1.88555 12.2361 1.66666 11.1528 1.66666 10C1.66666 8.84722 1.88555 7.76389 2.32333 6.75C2.76055 5.73611 3.35416 4.85417 4.10416 4.10417C4.85416 3.35417 5.73611 2.76028 6.75 2.3225C7.76389 1.88528 8.84722 1.66667 10 1.66667C11.1528 1.66667 12.2361 1.88528 13.25 2.3225C14.2639 2.76028 15.1458 3.35417 15.8958 4.10417C16.6458 4.85417 17.2394 5.73611 17.6767 6.75C18.1144 7.76389 18.3333 8.84722 18.3333 10C18.3333 11.1528 18.1144 12.2361 17.6767 13.25C17.2394 14.2639 16.6458 15.1458 15.8958 15.8958C15.1458 16.6458 14.2639 17.2394 13.25 17.6767C12.2361 18.1144 11.1528 18.3333 10 18.3333ZM10 16.6667C11.8472 16.6667 13.4203 16.0175 14.7192 14.7192C16.0175 13.4203 16.6667 11.8472 16.6667 10C16.6667 8.15278 16.0175 6.57972 14.7192 5.28083C13.4203 3.9825 11.8472 3.33333 10 3.33333C8.15278 3.33333 6.58 3.9825 5.28166 5.28083C3.98277 6.57972 3.33333 8.15278 3.33333 10C3.33333 11.8472 3.98277 13.4203 5.28166 14.7192C6.58 16.0175 8.15278 16.6667 10 16.6667Z" fill="black"/>
</svg>
