<svg width="20" height="20" viewBox="0 0 20 20" fill="none" xmlns="http://www.w3.org/2000/svg">
<path d="M4.16667 15.8333H5.33333L12.5208 8.64584L11.3542 7.47917L4.16667 14.6667V15.8333ZM16.0833 7.43751L12.5417 3.93751L13.7083 2.77084C14.0278 2.45139 14.4203 2.29167 14.8858 2.29167C15.3508 2.29167 15.7431 2.45139 16.0625 2.77084L17.2292 3.93751C17.5486 4.25695 17.7153 4.6425 17.7292 5.09417C17.7431 5.54528 17.5903 5.93056 17.2708 6.25001L16.0833 7.43751ZM14.875 8.66667L6.04167 17.5H2.5V13.9583L11.3333 5.12501L14.875 8.66667ZM11.9375 8.06251L11.3542 7.47917L12.5208 8.64584L11.9375 8.06251Z" fill="black"/>
</svg>
