<svg width="20" height="20" viewBox="0 0 20 20" fill="none" xmlns="http://www.w3.org/2000/svg">
<path d="M12.0833 15C11.5 15 11.0069 14.7986 10.6042 14.3958C10.2014 13.9931 10 13.5 10 12.9167C10 12.3333 10.2014 11.8403 10.6042 11.4375C11.0069 11.0347 11.5 10.8333 12.0833 10.8333C12.6667 10.8333 13.1597 11.0347 13.5625 11.4375C13.9653 11.8403 14.1667 12.3333 14.1667 12.9167C14.1667 13.5 13.9653 13.9931 13.5625 14.3958C13.1597 14.7986 12.6667 15 12.0833 15ZM4.16667 18.3333C3.70833 18.3333 3.31583 18.1703 2.98917 17.8442C2.66306 17.5175 2.5 17.125 2.5 16.6667V5.00001C2.5 4.54167 2.66306 4.14945 2.98917 3.82334C3.31583 3.49667 3.70833 3.33334 4.16667 3.33334H5V1.66667H6.66667V3.33334H13.3333V1.66667H15V3.33334H15.8333C16.2917 3.33334 16.6842 3.49667 17.0108 3.82334C17.3369 4.14945 17.5 4.54167 17.5 5.00001V16.6667C17.5 17.125 17.3369 17.5175 17.0108 17.8442C16.6842 18.1703 16.2917 18.3333 15.8333 18.3333H4.16667ZM4.16667 16.6667H15.8333V8.33334H4.16667V16.6667Z" fill="black"/>
</svg>
