<svg width="20" height="20" viewBox="0 0 20 20" fill="none" xmlns="http://www.w3.org/2000/svg">
<path d="M10 10C10.4583 10 10.8508 9.83667 11.1775 9.51C11.5036 9.18389 11.6667 8.79167 11.6667 8.33333C11.6667 7.875 11.5036 7.4825 11.1775 7.15583C10.8508 6.82972 10.4583 6.66667 10 6.66667C9.54167 6.66667 9.14945 6.82972 8.82334 7.15583C8.49667 7.4825 8.33334 7.875 8.33334 8.33333C8.33334 8.79167 8.49667 9.18389 8.82334 9.51C9.14945 9.83667 9.54167 10 10 10ZM10 16.125C11.6944 14.5694 12.9514 13.1561 13.7708 11.885C14.5903 10.6144 15 9.48611 15 8.5C15 6.98611 14.5172 5.74639 13.5517 4.78083C12.5867 3.81583 11.4028 3.33333 10 3.33333C8.59722 3.33333 7.41306 3.81583 6.4475 4.78083C5.4825 5.74639 5 6.98611 5 8.5C5 9.48611 5.40972 10.6144 6.22917 11.885C7.04861 13.1561 8.30556 14.5694 10 16.125ZM10 18.3333C7.76389 16.4306 6.09389 14.6631 4.99 13.0308C3.88556 11.3992 3.33334 9.88889 3.33334 8.5C3.33334 6.41667 4.00361 4.75695 5.34417 3.52083C6.68417 2.28472 8.23611 1.66667 10 1.66667C11.7639 1.66667 13.3158 2.28472 14.6558 3.52083C15.9964 4.75695 16.6667 6.41667 16.6667 8.5C16.6667 9.88889 16.1147 11.3992 15.0108 13.0308C13.9064 14.6631 12.2361 16.4306 10 18.3333Z" fill="black"/>
</svg>
