<svg width="20" height="20" viewBox="0 0 20 20" fill="none" xmlns="http://www.w3.org/2000/svg">
<path d="M10.8333 6.66667C10.8333 7.55072 10.4821 8.39857 9.85702 9.02369C9.2319 9.64881 8.38405 10 7.5 10C6.61594 10 5.76809 9.64881 5.14297 9.02369C4.51785 8.39857 4.16666 7.55072 4.16666 6.66667C4.16666 5.78261 4.51785 4.93477 5.14297 4.30965C5.76809 3.68453 6.61594 3.33334 7.5 3.33334C8.38405 3.33334 9.2319 3.68453 9.85702 4.30965C10.4821 4.93477 10.8333 5.78261 10.8333 6.66667ZM14.1667 15V16.6667H0.833328V15C0.833328 13.1583 3.81666 11.6667 7.5 11.6667C11.1833 11.6667 14.1667 13.1583 14.1667 15ZM17.0833 12.0833V13.3333H15.8333V12.0833H17.0833ZM15.4167 7.91667H14.1667V7.5C14.1667 6.83696 14.4301 6.20108 14.8989 5.73224C15.3677 5.26339 16.0036 5 16.6667 5C17.3297 5 17.9656 5.26339 18.4344 5.73224C18.9033 6.20108 19.1667 6.83696 19.1667 7.5C19.1667 8.30834 18.75 9.06667 18.0917 9.50834L17.8417 9.66667C17.3667 10 17.0833 10.5083 17.0833 11.0833V11.25H15.8333V11.0833C15.8333 10.0917 16.3333 9.16667 17.1583 8.625L17.4 8.46667C17.725 8.25 17.9167 7.89167 17.9167 7.5C17.9167 7.16848 17.785 6.85054 17.5505 6.61612C17.3161 6.3817 16.9982 6.25 16.6667 6.25C16.3351 6.25 16.0172 6.3817 15.7828 6.61612C15.5484 6.85054 15.4167 7.16848 15.4167 7.5V7.91667Z" fill="black"/>
</svg>
